HIERARCHY
ROOT Hips
{
  OFFSET 0 0 0
  CHANNELS 6 Xposition Yposition Zposition Zrotation Xrotation Yrotation
  JOINT Spine
  {
    OFFSET 0 10.1816 0.131521
    CHANNELS 3 Zrotation Xrotation Yrotation
    JOINT Spine1
    {
      OFFSET 0 10.0835 -1.0008
      CHANNELS 3 Zrotation Xrotation Yrotation
      JOINT Spine2
      {
        OFFSET 0 9.10001 -1.37342
        CHANNELS 3 Zrotation Xrotation Yrotation
        JOINT Neck
        {
          OFFSET 0 16.6717 -2.51617
          CHANNELS 3 Zrotation Xrotation Yrotation
          JOINT Head
          {
            OFFSET 0 9.61788 1.68501
            CHANNELS 3 Zrotation Xrotation Yrotation
            End Site
            {
              OFFSET 0 0 0
            }
          }
        }
        JOINT LeftShoulder
        {
          OFFSET 4.57045 10.946 -2.62799
          CHANNELS 3 Zrotation Xrotation Yrotation
          JOINT LeftArm
          {
            OFFSET 10.5924 -0.524583 -2.23212
            CHANNELS 3 Zrotation Xrotation Yrotation
            JOINT LeftForeArm
            {
              OFFSET 27.8415 -8.94286e-05 3.74589e-05
              CHANNELS 3 Zrotation Xrotation Yrotation
              JOINT LeftHand
              {
                OFFSET 28.3288 -1.74407e-05 3.78045e-05
                CHANNELS 3 Zrotation Xrotation Yrotation
                End Site
                {
                  OFFSET 0 0 0
                }
              }
            }
          }
        }
        JOINT RightShoulder
        {
          OFFSET -4.56997 10.9462 -2.62802
          CHANNELS 3 Zrotation Xrotation Yrotation
          JOINT RightArm
          {
            OFFSET -10.5928 -0.524798 -2.2321
            CHANNELS 3 Zrotation Xrotation Yrotation
            JOINT RightForeArm
            {
              OFFSET -27.8415 -3.30792e-05 1.16763e-05
              CHANNELS 3 Zrotation Xrotation Yrotation
              JOINT RightHand
              {
                OFFSET -28.3288 0 5.5816e-05
                CHANNELS 3 Zrotation Xrotation Yrotation
                End Site
                {
                  OFFSET 0 0 0
                }
              }
            }
          }
        }
      }
    }
  }
  JOINT LeftUpLeg
  {
    OFFSET 8.20778 -6.75171 -1.59956
    CHANNELS 3 Zrotation Xrotation Yrotation
    JOINT LeftLeg
    {
      OFFSET 0 -44.3705 0.284643
      CHANNELS 3 Zrotation Xrotation Yrotation
      JOINT LeftFoot
      {
        OFFSET 0 -44.4279 -2.98219
        CHANNELS 3 Zrotation Xrotation Yrotation
        JOINT LeftToeBase
        {
          OFFSET 0 -8.72867 10.7106
          CHANNELS 3 Zrotation Xrotation Yrotation
          End Site
          {
            OFFSET 0 0 0
          }
        }
      }
    }
  }
  JOINT RightUpLeg
  {
    OFFSET -8.2078 -6.75166 -1.59956
    CHANNELS 3 Zrotation Xrotation Yrotation
    JOINT RightLeg
    {
      OFFSET 0 -44.3705 0.286156
      CHANNELS 3 Zrotation Xrotation Yrotation
      JOINT RightFoot
      {
        OFFSET 0 -44.4277 -2.98379
        CHANNELS 3 Zrotation Xrotation Yrotation
        JOINT RightToeBase
        {
          OFFSET 0 -8.72867 10.7106
          CHANNELS 3 Zrotation Xrotation Yrotation
          End Site
          {
            OFFSET 0 0 0
          }
        }
      }
    }
  }
}
MOTION
Frames:	6
Frame Time:	0.0333333
82.1113 99.1387 18.6626 -1.24131 2.93472 -78.6459 0.0210271 1.67256 -0.992119 0.0710671 3.34452 -1.98614 0.0710768 3.34451 -1.98618 7.91645 9.81877 -4.10078 -4.15866 -21.983 -1.25146 -4.1605 0.00937255 3.15727 -54.3399 35.9882 -10.4691 9.63575 -17.0064 -58.504 7.31567 20.0416 5.30776 9.72424 0.394731 -1.02135 64.815 12.9437 -1.16472 -6.04457 -7.29518 45.5993 -5.10629 18.5137 0.711715 11.0263 -4.07326 12.1516 3.59467 40.6981 2.54201 -10.6899 -11.0135 2.83845 -2.94978e-06 1.28441e-06 -1.68707e-05 2.40149 -22.2379 -9.89125 -3.71237 29.58 -2.36246 0.749176 -12.6549 -2.91633 -2.63481e-06 -6.07664e-07 -2.63666e-05 
79.9939 99.1798 18.3789 -1.24974 3.80827 -78.5456 0.211139 1.64824 -0.894492 0.44826 3.29297 -1.79619 0.448271 3.29295 -1.79621 7.92457 9.79524 -4.36066 -4.20855 -21.7831 -1.5132 -4.22914 0.0601923 2.72901 -55.4033 35.4062 -10.261 8.62022 -16.5338 -60.7867 8.71287 20.1158 4.38199 9.72921 0.334279 -1.38173 64.2913 12.8925 -0.157342 -5.5179 -7.30955 48.0779 -5.45392 18.6504 1.25502 12.5623 -8.62152 10.8871 4.97601 48.704 2.08164 -9.00652 -3.71701 4.11509 -2.94978e-06 1.28441e-06 -1.68707e-05 3.41644 -20.9745 -11.8159 -4.10242 29.4377 -1.16651 0.866544 -14.0431 -2.19966 -2.63481e-06 -6.07664e-07 -2.63666e-05 
77.9382 99.2116 18.2578 -1.4191 4.18626 -78.8502 0.338765 1.72037 -0.695951 0.698879 3.4364 -1.40301 0.698887 3.4364 -1.40301 7.71489 9.65028 -4.54107 -4.22169 -21.6987 -1.78453 -4.34371 0.0661654 2.68421 -56.1727 34.7524 -10.9635 7.58572 -15.8735 -63.1004 9.95647 21.6009 3.07288 9.56123 0.310283 -1.50953 63.2646 13.1249 1.19772 -4.97216 -7.43221 51.2536 -5.99605 20.182 1.61231 13.5635 -13.2867 10.2923 5.54774 57.1953 2.92781 -5.01868 0.945062 5.42979 -2.94978e-06 1.28441e-06 -1.68707e-05 4.08121 -19.5997 -12.1037 -4.03942 29.5975 -0.835988 0.855957 -15.4313 -1.9465 -2.63481e-06 -6.07664e-07 -2.63666e-05 
76.0104 99.2214 18.2545 -1.6309 4.23241 -79.2299 0.403479 1.83541 -0.519795 0.824223 3.66706 -1.05334 0.824228 3.66706 -1.05334 7.11264 9.68655 -4.53532 -4.13372 -21.7309 -2.00265 -4.57699 0.0459461 2.8588 -56.7905 33.7459 -11.9947 6.54011 -15.0783 -65.5669 11.2663 23.2959 1.75516 9.24497 0.355378 -1.20301 61.8727 13.5199 3.03928 -4.46106 -7.64688 54.7413 -6.90406 21.6317 2.59902 13.8923 -17.6597 10.811 7.24076 63.7892 2.28521 -2.55216 2.03276 6.10802 -2.94978e-06 1.28441e-06 -1.68707e-05 4.53656 -18.3073 -11.1791 -3.7955 29.9834 -1.2343 0.82311 -16.7475 -2.14266 -2.63481e-06 -6.07664e-07 -2.63666e-05 
74.1556 99.2 18.3564 -1.59282 4.01531 -79.4477 0.388899 1.90262 -0.409312 0.792035 3.80237 -0.832213 0.792053 3.80237 -0.832235 6.59771 9.94404 -4.49372 -4.063 -21.8408 -2.14335 -4.65317 0.048568 2.83976 -57.3418 32.4691 -13.0853 5.52052 -14.128 -68.1072 12.8552 24.9182 0.412032 8.93517 0.40254 -0.874113 60.3544 13.2735 5.49863 -3.74343 -7.42483 58.079 -8.06002 22.8795 3.67515 13.7839 -21.9885 11.6041 8.423 67.8902 -0.474318 -2.32062 0.402483 5.08725 -2.94978e-06 1.28441e-06 -1.68707e-05 4.58852 -17.3677 -10.7266 -3.90356 30.5303 -1.32579 0.952652 -18.0231 -2.23826 -2.63481e-06 -6.07664e-07 -2.63666e-05 
72.2949 99.2627 18.5833 -1.46669 3.77572 -79.5176 0.371779 1.94313 -0.346922 0.755973 3.88393 -0.707047 0.755979 3.88391 -0.707079 6.18733 10.3501 -4.44025 -4.08123 -21.9885 -2.22711 -4.71868 0.0655876 2.70367 -57.3159 31.2015 -14.6016 4.58624 -12.9944 -70.5125 15.1981 25.9883 -1.41037 8.67059 0.455864 -0.50253 59.0325 12.3032 8.30592 -2.97396 -6.95872 61.4341 -9.08575 24.3861 4.4602 13.5388 -25.8135 12.4308 8.23638 68.9001 -2.19576 -3.8942 -0.635594 3.88767 -2.94978e-06 1.28441e-06 -1.68707e-05 4.488 -16.3076 -10.224 -3.83713 30.7005 -1.61301 1.12117 -18.9901 -2.38679 -2.63481e-06 -6.07664e-07 -2.63666e-05 
